Coordinates
version=1
nRows=14
nColumns=24
inDegrees=yes

Units are S.I. units (second, meters, Newtons, ...)
Angles are in degrees.

endheader
time	pelvis_tilt	pelvis_list	pelvis_rotation	pelvis_tx	pelvis_ty	pelvis_tz	hip_flexion_r	hip_adduction_r	hip_rotation_r	knee_angle_r	ankle_angle_r	subtalar_angle_r	mtp_angle_r	hip_flexion_l	hip_adduction_l	hip_rotation_l	knee_angle_l	ankle_angle_l	subtalar_angle_l	mtp_angle_l	lumbar_extension	lumbar_bending	lumbar_rotation
      0.84166667	      4.58859460	     -1.74464799	     -0.88985718	     -0.45562841	      1.07915640	      0.35390950	      2.67678466	      7.63476209	     -1.02376670	    -10.83933374	      0.27566388	     -9.88053328	      1.55896920	      8.18267997	     -3.02163257	     -1.58128595	    -62.44499887	      1.64416606	     -5.62802859	      6.86386365	     -1.05198849	      4.88049379	     -1.04833459
      0.84583333	      4.59552288	     -1.64463662	     -0.93562088	     -0.45063731	      1.07977740	      0.35432599	      2.28895799	      7.54948409	     -0.88834361	    -10.67764699	      0.42037796	     -9.78097781	      1.56773459	      8.71815527	     -2.92067687	     -1.41584341	    -62.24360588	      2.16629803	     -6.18926448	      6.78687258	     -1.11334241	      4.66108284	     -0.94083464
      0.85000000	      4.60839802	     -1.51513191	     -1.04525210	     -0.44568790	      1.08039679	      0.35464481	      1.91764102	      7.41167969	     -0.79480254	    -10.56986423	      0.59086364	     -9.69895135	      1.57595069	      9.21716829	     -2.77007446	     -1.30392560	    -61.96059962	      2.74280336	     -6.77194851	      6.70743748	     -1.16650804	      4.47332836	     -0.83208463
      0.85416667	      4.61733352	     -1.39078918	     -1.16079397	     -0.44072923	      1.08098632	      0.35499947	      1.54713871	      7.28368829	     -0.69831994	    -10.45449353	      0.76466959	     -9.59376680	      1.58454934	      9.70354026	     -2.62946334	     -1.20014625	    -61.61554112	      3.26073601	     -7.29814590	      6.61973485	     -1.22394064	      4.29792439	     -0.71208872
      0.85833333	      4.63584322	     -1.27136187	     -1.27409274	     -0.43579911	      1.08157176	      0.35532781	      1.16430630	      7.15738552	     -0.60076232	    -10.32949806	      0.93343469	     -9.48337962	      1.59270178	     10.16607386	     -2.49163264	     -1.09225983	    -61.20721741	      3.73386591	     -7.74789428	      6.53020456	     -1.28554554	      4.12376216	     -0.58671708
      0.86250000	      4.63799408	     -1.15907785	     -1.39548691	     -0.43087998	      1.08209371	      0.35563873	      0.80162593	      7.03734359	     -0.50264765	    -10.20697567	      1.09973436	     -9.37735574	      1.60017242	     10.63303629	     -2.36112131	     -0.99008300	    -60.74482630	      4.17300708	     -8.12087175	      6.44026416	     -1.34504894	      3.96668167	     -0.46020032
      0.86666667	      4.65126552	     -1.04670142	     -1.51967044	     -0.42597466	      1.08260483	      0.35593521	      0.42455677	      6.91525797	     -0.39922038	    -10.07809991	      1.26701526	     -9.27442247	      1.60709568	     11.07147207	     -2.22948534	     -0.89150125	    -60.22155529	      4.58703232	     -8.43086109	      6.34709248	     -1.40192653	      3.81007061	     -0.32760047
      0.87083333	      4.65315935	     -0.95022556	     -1.64121449	     -0.42108265	      1.08306900	      0.35620166	      0.05647264	      6.80914092	     -0.28905157	     -9.93716035	      1.42495252	     -9.18039449	      1.61317672	     11.50882105	     -2.11312397	     -0.78818122	    -59.64491852	      4.96827459	     -8.67575668	      6.25354482	     -1.45833184	      3.67521124	     -0.19543851
      0.87500000	      4.67348501	     -0.84570222	     -1.84044951	     -0.41626006	      1.08353140	      0.35649415	     -0.30798241	      6.68326685	     -0.18444197	     -9.84897313	      1.64933126	     -9.02858125	      1.62250077	     11.89804597	     -1.99310370	     -0.76128211	    -59.00444986	      5.38569129	     -8.90144510	      6.04876253	     -1.59258830	      3.58637025	      0.03882408
      0.87916667	      4.65537430	     -0.76683234	     -1.90741803	     -0.41140892	      1.08388483	      0.35664055	     -0.66280251	      6.59322927	     -0.09163697	     -9.67764281	      1.70883635	     -8.99597119	      1.62421955	     12.34441677	     -1.88274355	     -0.58456324	    -58.32541566	      5.54850072	     -8.95816922	      6.00610436	     -1.64452508	      3.51984450	      0.09413406
      0.88333333	      4.67063418	     -0.69920041	     -2.00510863	     -0.40644271	      1.08426629	      0.35694116	     -1.07530176	      6.52778299	      0.03797787	     -9.47662610	      1.85664819	     -8.94633797	      1.62729393	     12.71442471	     -1.80393396	     -0.47298581	    -57.58919546	      5.90693327	     -9.09735094	      5.92322871	     -1.63074491	      3.33609545	      0.22161116
      0.88750000	      4.68076016	     -0.63638504	     -2.14584712	     -0.40158873	      1.08459309	      0.35718472	     -1.46295454	      6.45373062	      0.19017533	     -9.30899138	      2.01464969	     -8.89544029	      1.62972110	     13.07734488	     -1.72834963	     -0.39399769	    -56.80159766	      6.22962901	     -9.17982046	      5.81414784	     -1.69322703	      3.23826492	      0.36234343
      0.89166667	      4.63241750	     -0.58907092	     -2.25189567	     -0.39681376	      1.08478913	      0.35726965	     -1.77009825	      6.38854407	      0.24842801	     -9.16168457	      2.07027957	     -8.88736925	      1.63005622	     13.50849387	     -1.65082645	     -0.26198913	    -55.97716019	      6.35512242	     -9.19315986	      5.78214392	     -1.79400775	      3.24253213	      0.39512698
      0.89583333	      4.65277536	     -0.54337833	     -2.35479805	     -0.39185245	      1.08507172	      0.35751702	     -2.20283278	      6.34043812	      0.43015211	     -8.93096230	      2.22795224	     -8.85372965	      1.63091677	     13.82127483	     -1.59363909	     -0.16268739	    -55.08245975	      6.62920243	     -9.24931549	      5.69349874	     -1.75694980	      3.10615742	      0.54052234
